<?xml version="1.0" standalone="no"?>
<!DOCTYPE svg PUBLIC "-//W3C//DTD SVG 20010904//EN"
 "http://www.w3.org/TR/2001/REC-SVG-20010904/DTD/svg10.dtd">
<svg version="1.0" xmlns="http://www.w3.org/2000/svg"
 width="1024.000000pt" height="1024.000000pt" viewBox="0 0 1024.000000 1024.000000"
 preserveAspectRatio="xMidYMid meet">
<metadata>
Created by potrace 1.14, written by Peter Selinger 2001-2017
</metadata>
<g transform="translate(0.000000,1024.000000) scale(0.100000,-0.100000)"
fill="#000000" stroke="none">
<path d="M4575 7094 c-38 -2 -221 -8 -405 -14 -339 -11 -363 -12 -640 -31
-487 -33 -962 -93 -1129 -144 -107 -32 -156 -61 -219 -129 -123 -136 -157
-253 -192 -671 -20 -242 -30 -519 -37 -950 l-6 -431 45 -44 c80 -79 107 -100
128 -100 14 0 20 -7 20 -23 0 -12 8 -30 18 -38 17 -15 19 -41 25 -305 4 -159
11 -356 18 -437 6 -82 9 -150 6 -153 -2 -3 -17 2 -33 10 -73 38 -198 95 -202
92 -5 -6 26 -395 43 -530 23 -183 54 -275 130 -382 73 -102 123 -132 281 -168
340 -78 896 -126 1795 -157 384 -13 1779 -6 2084 10 759 41 1229 89 1476 151
44 11 103 32 131 47 105 57 215 213 251 358 41 161 76 541 100 1083 2 58 -10
67 -36 24 -9 -15 -30 -42 -47 -59 l-30 -33 -358 0 c-373 0 -382 -1 -382 -42 0
-37 40 -40 415 -31 l359 8 7 25 c5 22 7 23 14 7 13 -32 -12 -47 -79 -47 -60 0
-63 -1 -104 -45 l-42 -45 -278 0 c-288 0 -302 -2 -302 -42 0 -33 34 -38 267
-38 174 -1 223 -3 209 -12 -11 -6 -35 -26 -53 -45 l-34 -33 -180 0 c-187 0
-219 -6 -219 -40 0 -37 45 -48 168 -43 63 3 112 2 112 -3 0 -5 -20 -22 -45
-39 -24 -16 -45 -33 -45 -36 0 -7 -9 -9 -110 -17 -82 -7 -85 -8 -85 -32 0 -16
8 -28 23 -35 12 -5 22 -13 22 -16 0 -11 -100 -72 -107 -65 -3 3 -1 79 6 168
17 238 31 542 31 709 l0 145 40 23 c22 12 40 25 40 29 0 8 62 37 73 34 4 -1 7
3 7 8 0 6 6 10 13 10 8 0 30 16 51 36 27 27 42 34 59 29 16 -5 18 -4 8 3 -12
8 -10 15 10 40 13 17 29 31 35 31 7 1 14 8 18 16 3 8 10 15 16 15 20 0 80 55
80 73 0 9 8 17 18 17 14 0 15 2 2 10 -12 7 -11 10 5 16 32 13 105 80 105 97 0
12 40 62 50 62 18 0 70 56 70 75 0 11 4 20 9 20 5 0 7 10 3 22 -3 14 -1 19 6
14 6 -3 18 4 26 16 11 15 16 18 16 8 1 -21 29 31 30 53 0 9 5 17 10 17 6 0 10
5 10 11 0 11 41 52 45 47 4 -4 14 -223 20 -418 17 -541 35 -411 30 220 -6 806
-42 1323 -106 1512 -21 64 -84 171 -119 203 -18 16 -18 16 -16 -8 3 -22 -1
-21 -63 25 -96 72 -154 94 -331 127 -408 77 -805 102 -2145 136 -209 6 -340
14 -333 20 5 6 880 -13 1153 -25 685 -28 1211 -77 1461 -135 36 -8 73 -15 82
-15 63 1 -170 62 -323 84 -270 40 -737 76 -1255 97 -248 10 -1524 20 -1695 13z
m483 -384 c959 -28 1508 -82 1688 -166 125 -59 223 -212 248 -389 71 -494 86
-1658 30 -2408 -8 -115 -20 -218 -25 -230 -6 -14 -6 4 -2 53 15 142 7 890 -12
1095 -9 105 -19 222 -21 260 -3 39 -9 79 -14 90 -4 11 -13 54 -20 95 -6 41
-15 76 -20 78 -5 2 -6 10 -3 19 15 37 -20 43 -268 43 -131 0 -244 -3 -253 -6
-10 -4 -16 -18 -16 -35 0 -16 -4 -29 -9 -29 -5 0 -12 -10 -14 -22 -4 -19 -4
-18 -6 5 0 16 -5 26 -11 22 -5 -3 -10 -1 -10 4 0 6 6 11 13 12 10 0 10 2 0 6
-7 2 -13 11 -13 19 0 12 -51 14 -320 14 l-320 0 0 -83 0 -84 -62 31 c-58 29
-70 31 -168 31 -95 -1 -111 -3 -163 -29 -74 -36 -147 -109 -183 -183 -26 -52
-28 -69 -29 -163 0 -94 3 -111 28 -165 37 -79 114 -156 191 -192 55 -25 74
-28 195 -31 124 -4 135 -2 162 17 l29 22 0 -113 c0 -62 -3 -123 -6 -135 -7
-26 -24 -31 -24 -8 0 8 -7 15 -15 15 -8 0 -15 -7 -15 -15 0 -13 -39 -15 -295
-15 -187 0 -295 4 -295 10 0 6 106 11 283 13 l282 3 -288 -1 c-158 0 -287 4
-287 8 0 5 -4 6 -10 2 -5 -3 -6 -13 -3 -22 4 -11 3 -14 -5 -9 -9 5 -12 -149
-12 -642 l0 -649 -172 -7 c-240 -10 -1129 17 -1473 44 -434 35 -770 88 -849
134 -100 58 -182 184 -211 322 -18 88 -40 298 -57 534 -20 291 -17 1532 5
1860 21 309 41 474 68 546 41 110 128 213 218 259 160 81 744 141 1611 164
442 12 550 12 928 1z m2852 -278 c225 -117 226 -424 3 -534 -58 -28 -78 -33
-138 -33 -160 1 -281 115 -293 276 -10 139 63 249 203 306 49 20 172 12 225
-15z m4 -802 c136 -69 199 -231 146 -372 -27 -74 -68 -119 -142 -158 -55 -30
-72 -34 -138 -34 -125 -1 -214 54 -270 166 -80 162 -4 342 175 415 50 21 172
12 229 -17z m306 -344 c0 -2 -7 -7 -16 -10 -8 -3 -12 -2 -9 4 6 10 25 14 25 6z
m-897 -345 c-15 -20 -29 -38 -32 -41 -4 -3 -24 -27 -46 -55 -22 -27 -44 -55
-50 -61 -5 -6 -27 -32 -49 -58 -21 -25 -42 -46 -47 -46 -5 0 -9 83 -9 188 0
108 4 181 9 173 6 -9 11 -10 15 -2 4 6 15 11 26 11 10 0 20 6 23 14 3 8 16 16
29 18 13 2 22 9 21 16 -3 14 9 16 23 2 13 -13 54 -1 54 15 0 7 12 17 28 23
l27 9 3 -85 c3 -78 1 -87 -25 -121z m-1906 -80 c-58 -60 -67 -74 -67 -106 0
-53 53 -105 105 -105 34 0 47 9 131 92 l94 92 0 -152 c0 -151 0 -152 -20 -132
-25 25 -44 29 -166 32 -88 3 -105 6 -137 28 -56 39 -80 90 -75 161 7 95 70
159 156 159 l45 0 -66 -69z m2781 -1017 c-3 -16 -13 -19 -58 -20 -54 -2 -54
-2 -10 5 37 5 46 10 48 30 3 16 7 20 14 13 5 -5 8 -18 6 -28z m-8 -165 c0 -12
-10 -23 -26 -30 -33 -12 -43 -5 -15 11 12 6 21 20 21 31 0 11 5 17 10 14 6 -3
10 -15 10 -26z m-25 -195 c-10 -8 -28 -14 -39 -14 -19 0 -18 2 4 13 14 7 27
23 29 37 l3 25 11 -24 c9 -19 8 -26 -8 -37z m-1165 -24 c0 -11 -2 -20 -4 -20
-2 0 -6 9 -9 20 -3 11 -1 20 4 20 5 0 9 -9 9 -20z m-19 -83 c-10 -9 -11 -8 -5
6 3 10 9 15 12 12 3 -3 0 -11 -7 -18z m1179 -43 c0 -14 -48 -39 -57 -30 -3 2
5 7 16 11 12 4 21 15 21 26 0 11 5 17 10 14 6 -3 10 -13 10 -21z"/>
<path d="M4845 5451 c-11 -5 -31 -21 -45 -36 -35 -38 -36 -122 -1 -159 52 -56
130 -55 183 2 34 36 41 63 28 111 -17 65 -105 108 -165 82z"/>
<path d="M5698 5323 c12 -2 32 -2 45 0 12 2 2 4 -23 4 -25 0 -35 -2 -22 -4z"/>
<path d="M5818 5323 c7 -3 16 -2 19 1 4 3 -2 6 -13 5 -11 0 -14 -3 -6 -6z"/>
<path d="M5713 5303 c20 -2 54 -2 75 0 20 2 3 4 -38 4 -41 0 -58 -2 -37 -4z"/>
<path d="M5898 5303 c7 -3 16 -2 19 1 4 3 -2 6 -13 5 -11 0 -14 -3 -6 -6z"/>
<path d="M3250 5126 c-91 -24 -147 -74 -189 -166 -17 -37 -21 -66 -21 -168 0
-174 -14 -201 -111 -217 -94 -15 -116 -149 -30 -184 70 -30 210 19 264 91 56
74 61 95 67 252 l6 148 32 29 c18 16 44 29 58 29 108 0 143 154 43 189 -39 14
-61 13 -119 -3z"/>
<path d="M3790 5125 c-190 -54 -304 -237 -270 -434 30 -171 155 -289 328 -312
198 -25 278 5 276 104 -2 69 -25 81 -162 88 -128 6 -163 18 -205 68 -99 118
-16 301 138 301 l38 0 -65 -67 c-73 -77 -85 -107 -64 -158 18 -41 71 -69 112
-59 14 4 82 60 150 126 95 92 125 127 130 153 23 124 -225 240 -406 190z"/>
<path d="M4503 5122 c-98 -35 -156 -90 -200 -187 -16 -35 -18 -70 -18 -273 l0
-234 28 -24 c46 -39 131 -28 156 20 6 12 12 104 13 228 3 192 5 209 24 235 19
26 60 45 127 58 44 9 67 39 67 89 0 92 -82 129 -197 88z"/>
<path d="M4839 5125 c-47 -26 -50 -47 -47 -384 l3 -313 28 -24 c48 -41 128
-29 160 26 15 24 17 65 17 317 0 169 -4 304 -11 325 -16 61 -89 86 -150 53z"/>
<path d="M7692 6329 c-89 -44 -129 -167 -83 -257 29 -57 36 -57 37 -2 1 94
109 241 188 257 26 6 27 7 11 14 -39 15 -110 9 -153 -12z"/>
<path d="M7915 6280 c8 -37 -19 -116 -61 -177 -40 -58 -114 -113 -152 -113
-25 0 -25 0 -6 -21 16 -18 26 -20 68 -15 111 13 195 85 204 175 6 68 -3 110
-33 146 -25 29 -25 29 -20 5z"/>
<path d="M7730 5540 c0 -5 7 -10 15 -10 26 0 100 -83 130 -145 31 -67 39 -151
16 -178 -8 -10 -28 -17 -49 -17 -31 0 -44 9 -93 58 -65 68 -103 151 -97 219 4
50 -11 43 -41 -21 -41 -84 -18 -186 52 -240 18 -14 60 -32 92 -40 33 -7 71
-18 85 -24 53 -21 83 8 110 107 42 150 12 242 -93 286 -41 17 -127 20 -127 5z"/>
<path d="M7417 4233 c-17 -16 -6 -54 19 -63 16 -6 156 -7 381 -2 316 6 357 9
366 24 8 12 7 21 -2 32 -12 14 -58 16 -386 16 -204 0 -375 -3 -378 -7z"/>
<path d="M7653 2233 c-23 -4 -25 -10 -26 -75 0 -21 -3 -38 -7 -38 -11 0 -4
-44 8 -48 19 -6 42 43 48 106 4 34 5 61 3 61 -2 -1 -14 -4 -26 -6z"/>
<path d="M2560 2193 c0 -56 18 -111 40 -123 18 -10 70 -14 70 -6 0 28 -34 152
-43 158 -7 4 -24 8 -39 8 -26 0 -28 -3 -28 -37z"/>
<path d="M6977 2163 c-21 -3 -27 -9 -23 -20 3 -8 6 -21 6 -29 0 -24 39 -54 70
-54 34 0 35 2 18 65 -12 46 -13 47 -71 38z"/>
<path d="M3235 2140 c3 -11 3 -25 -1 -32 -5 -7 -9 -20 -9 -30 -1 -13 2 -15 16
-7 23 12 39 41 39 68 0 16 -6 21 -26 21 -21 0 -24 -4 -19 -20z"/>
<path d="M4400 2097 c-56 -10 -65 -15 -68 -34 -3 -18 2 -23 20 -24 31 -2 73
-6 128 -14 124 -17 206 -20 570 -20 318 0 423 3 539 18 80 10 146 19 148 21 2
2 6 13 8 26 3 16 0 20 -10 16 -8 -3 -15 -1 -15 4 0 6 -230 10 -592 10 -325 0
-607 2 -627 4 -20 2 -65 -1 -101 -7z"/>
<path d="M3167 2044 c-3 -3 -123 -5 -268 -5 -145 -1 -273 -4 -284 -9 -43 -17
64 -25 325 -25 259 0 380 8 350 25 -19 9 -116 21 -123 14z"/>
<path d="M7001 2031 c-26 -16 36 -23 264 -28 146 -3 256 -1 300 6 39 6 75 12
82 13 7 1 10 5 7 9 -6 10 -636 10 -653 0z"/>
</g>
</svg>
