<?xml version="1.0" standalone="no"?>
<!DOCTYPE svg PUBLIC "-//W3C//DTD SVG 20010904//EN"
 "http://www.w3.org/TR/2001/REC-SVG-20010904/DTD/svg10.dtd">
<svg version="1.0" xmlns="http://www.w3.org/2000/svg"
 width="612.000000pt" height="612.000000pt" viewBox="0 0 612.000000 612.000000"
 preserveAspectRatio="xMidYMid meet">

<g transform="translate(0.000000,612.000000) scale(0.100000,-0.100000)"
fill="#000000" stroke="none">
<path d="M1925 4314 c-218 -30 -389 -93 -560 -205 -112 -74 -278 -242 -355
-359 -34 -52 -63 -96 -64 -97 -1 -2 -42 -14 -90 -28 -143 -41 -218 -90 -257
-167 -34 -67 -36 -120 -4 -183 31 -63 81 -106 157 -133 67 -23 66 -51 -1 -75
-61 -21 -125 -89 -141 -149 -45 -166 76 -339 272 -388 39 -10 48 -17 66 -56
73 -149 268 -366 417 -463 205 -133 404 -198 646 -208 141 -6 244 5 389 43
321 84 620 326 783 636 l35 66 40 -61 c281 -432 820 -621 1307 -461 368 122
652 425 747 798 19 78 24 86 45 86 72 0 155 73 179 158 40 136 -33 276 -181
351 -56 28 -62 34 -80 83 -88 250 -303 490 -550 615 -315 160 -706 162 -1020
6 -193 -97 -397 -292 -487 -466 l-19 -39 -51 84 c-190 310 -478 516 -828 593
-72 16 -330 28 -395 19z m360 -119 c318 -61 616 -273 779 -557 l27 -46 -23 -4
c-50 -7 -20 -31 91 -74 141 -55 201 -97 235 -166 37 -75 32 -134 -16 -185 -33
-36 -58 -30 -58 12 0 28 4 35 20 35 32 0 23 28 -17 55 -46 30 -292 101 -514
149 -536 115 -1035 124 -1594 31 -246 -41 -473 -104 -483 -134 -4 -11 5 -13
42 -9 l46 6 0 -32 c0 -51 -10 -57 -58 -36 -88 40 -117 114 -73 186 38 63 82
87 295 164 121 43 165 70 117 70 -12 0 -21 3 -21 7 0 3 26 40 57 82 106 142
241 256 395 336 136 71 241 101 443 129 50 7 233 -4 310 -19z m2131 -79 c315
-68 562 -255 710 -540 l46 -88 -34 7 c-18 3 -40 9 -50 11 -9 3 -19 0 -22 -5
-4 -5 20 -19 51 -31 153 -57 275 -148 318 -236 25 -51 26 -141 2 -178 -16 -24
-83 -66 -90 -55 -1 2 -1 37 1 77 l4 74 35 -7 c26 -5 34 -3 31 7 -6 18 -207 81
-393 122 -281 62 -531 91 -878 102 -173 6 -541 -7 -623 -22 -28 -5 -32 -3 -38
20 -4 15 -33 53 -66 86 -33 33 -57 60 -52 60 4 0 61 10 127 21 97 17 175 22
409 25 341 5 361 9 210 41 -99 21 -511 24 -682 4 -63 -7 -116 -10 -119 -7 -11
11 94 154 167 226 246 247 604 356 936 286z m-2118 -712 c59 -8 62 -15 33 -72
-35 -67 -101 -117 -174 -131 -124 -23 -248 46 -286 158 -22 68 -31 65 182 58
105 -4 216 -10 245 -13z m-669 -61 c31 -186 167 -334 355 -388 79 -23 218 -16
295 15 158 62 270 196 306 364 l6 28 62 -6 c93 -11 372 -72 468 -103 l84 -28
8 -45 c9 -46 2 -267 -9 -307 -5 -17 -14 -23 -33 -23 -14 0 -105 -13 -201 -29
-201 -34 -402 -63 -610 -88 -212 -25 -798 -25 -995 0 -152 20 -334 51 -395 67
l-38 10 -12 99 c-14 110 -9 297 10 373 13 52 12 51 115 68 39 6 95 15 125 20
49 8 187 25 280 33 19 2 65 5 101 5 l67 2 11 -67z m2353 -118 c14 -129 84
-246 200 -330 83 -62 176 -90 293 -89 78 1 100 5 169 34 142 60 267 206 290
343 4 20 11 37 15 37 11 0 174 -28 239 -41 l52 -10 0 -78 c0 -325 -176 -652
-450 -836 -412 -276 -930 -233 -1284 106 -87 82 -186 209 -186 237 0 7 7 12
15 12 9 0 33 11 54 25 128 80 173 210 117 332 -13 28 -38 61 -55 74 l-31 23
24 25 c38 42 56 76 64 122 6 37 12 44 37 50 36 10 298 27 375 25 l55 -1 7 -60z
m458 55 c290 -22 277 -17 241 -88 -103 -201 -420 -159 -461 61 l-7 37 51 0
c28 0 107 -5 176 -10z m-1051 -316 c67 -56 62 -151 -11 -230 -51 -55 -128 -92
-234 -111 -78 -14 -105 -33 -48 -33 l24 0 -26 -52 c-50 -99 -114 -188 -195
-273 -170 -177 -345 -276 -589 -335 -130 -31 -342 -32 -481 -3 -299 64 -564
244 -730 497 -22 33 -39 63 -39 68 0 4 11 8 25 8 15 0 25 6 25 14 0 9 -26 20
-72 31 -176 42 -300 130 -333 237 -23 72 -14 121 30 165 56 56 67 47 79 -59 5
-46 5 -48 -20 -48 -52 0 -20 -31 67 -65 211 -83 425 -132 674 -155 161 -15
515 -12 714 5 392 35 918 121 1061 174 51 19 64 53 22 59 -19 3 -23 8 -18 25
3 12 6 41 6 65 0 35 3 42 19 42 11 0 33 -12 50 -26z"/>
<path d="M1955 3714 c-96 -15 -121 -21 -113 -29 3 -3 133 -7 289 -9 285 -4
364 -11 627 -55 68 -12 137 -21 153 -21 41 0 37 26 -6 44 -47 20 -258 63 -370
76 -128 14 -472 11 -580 -6z"/>
<path d="M2660 2524 c-289 -57 -585 -80 -861 -65 -107 6 -216 14 -242 17 -38
5 -47 4 -47 -8 0 -15 76 -35 220 -58 191 -30 481 -21 699 21 102 20 271 69
300 88 25 16 -3 18 -69 5z"/>
</g>
</svg>
