<?xml version="1.0" encoding="UTF-8"?>
<svg width="282" height="270" viewBox="0 0 282 270" xmlns="http://www.w3.org/2000/svg" xmlns:xlink="http://www.w3.org/1999/xlink">
<defs>
<linearGradient id="k" x1="391.8" x2="340.2" y1="310.4" y2="152.4" gradientUnits="userSpaceOnUse">
<stop stop-color="#971" offset="0"/>
<stop stop-color="#fe6" offset="1"/>
</linearGradient>
<linearGradient id="j" x1="341" x2="475" y1="293" y2="250" gradientUnits="userSpaceOnUse">
<stop stop-color="#971" offset="0"/>
<stop stop-color="#cb1" offset="1"/>
</linearGradient>
<linearGradient id="i" x1="204.8" x2="339.7" y1="271.5" y2="271.5" gradientUnits="userSpaceOnUse" xlink:href="#a"/>
<linearGradient id="h" x1="257.3" x2="339.6" y1="407.9" y2="293.8" gradientUnits="userSpaceOnUse" xlink:href="#a"/>
<linearGradient id="g" x1="340.2" x2="257.3" y1="348.6" y2="407.9" gradientUnits="userSpaceOnUse" xlink:href="#j"/>
<linearGradient id="l" x1="381.8" x2="340.9" y1="341.9" y2="293.5" gradientUnits="userSpaceOnUse">
<stop stop-color="#b96" offset="0"/>
<stop stop-color="#ffb" offset="1"/>
</linearGradient>
<linearGradient id="o" x1="307.5" x2="338.8" y1="250.9" y2="248.3" gradientUnits="userSpaceOnUse" xlink:href="#a"/>
<linearGradient id="n" x1="381.8" x2="340.9" y1="341.9" y2="293.5" gradientUnits="userSpaceOnUse" xlink:href="#l"/>
<linearGradient id="m" x1="205.2" x2="340.7" y1="250" y2="293.9" gradientUnits="userSpaceOnUse">
<stop stop-color="#cb1" offset="0"/>
<stop stop-color="#971" offset="1"/>
</linearGradient>
<linearGradient id="f" x1="381.8" x2="340.9" y1="341.9" y2="293.5" gradientUnits="userSpaceOnUse" xlink:href="#l"/>
<linearGradient id="b" x1="388.3" x2="340.9" y1="278.1" y2="293.5" gradientUnits="userSpaceOnUse" xlink:href="#k"/>
<linearGradient id="c" x1="314.2" x2="341.1" y1="319.8" y2="281.3" gradientUnits="userSpaceOnUse" xlink:href="#k"/>
</defs>
<linearGradient id="a" x1="307.5" x2="338.8" y1="250.9" y2="248.3" gradientUnits="userSpaceOnUse">
<stop stop-color="#ed3" offset="0"/>
<stop stop-color="#fe6" offset="1"/>
</linearGradient>
<linearGradient id="d" x1="371.7" x2="389.2" y1="250" y2="277.4" gradientUnits="userSpaceOnUse" xlink:href="#a"/>
<g transform="translate(-198.9 -145)" stroke="url(#n)">
<path d="m340 293.4 4e-5-141.7-31.99 98.14z" fill="url(#o)"/>
<path d="m340 151.7 32.08 98.14-32.11 43.58z" fill="url(#k)"/>
<path d="m340.1 293.4 134.4-43.58h-102.5z" fill="url(#d)"/>
<path d="m339.9 293.4 51.31 16.83 83.27-60.42z" fill="url(#j)"/>
<path d="m288.6 310.2 51.43-16.84-134.7-43.58z" fill="url(#m)"/>
<path d="m339.9 293.4-83.14 114.6 31.86-97.73z" fill="url(#h)"/>
<path d="m339.9 293.4 51.31 16.83 31.88 97.73z" fill="url(#b)" stroke="url(#f)"/>
<path d="m339.9 348.1 83.17 59.8-83.17-114.6z" fill="url(#c)"/>
<path d="m308 249.8 31.99 43.58-134.6-43.58z" fill="url(#i)"/>
<path d="m339.9 348.1-83.17 59.8 83.16-114.6z" fill="url(#g)"/>
</g>
</svg>
