<?xml version="1.0" encoding="utf-8"?>
<!-- Svg Vector Icons : http://www.onlinewebfonts.com/icon -->
<!DOCTYPE svg PUBLIC "-//W3C//DTD SVG 1.1//EN" "http://www.w3.org/Graphics/SVG/1.1/DTD/svg11.dtd">
<svg version="1.1" xmlns="http://www.w3.org/2000/svg" xmlns:xlink="http://www.w3.org/1999/xlink" x="0px" y="0px" viewBox="0 0 1000 1000" enable-background="new 0 0 1000 1000" xml:space="preserve">
<metadata> Svg Vector Icons : http://www.onlinewebfonts.com/icon </metadata>
<g><g><path d="M820.3,594.9c46.5,0,84.2,37.7,84.2,84.2c0,46.5-37.7,84.2-84.2,84.2S736,725.6,736,679.1C736,632.6,773.7,594.9,820.3,594.9z M477,585.7l-76.5-76.5l26-26l76.5,76.5L477,585.7z M985.2,823.2c-21.9-42.8-43.9-85.6-65.8-128.4c-1.2,34.3-19.9,64.2-47.4,81c4.8,9.4,9.6,18.7,14.4,28.1c-42.2,0-84.4,0-126.6,0c0.3-5.3,0.1-10.6-0.5-15.8c1.8-10.8-0.3-22.5-8.4-33c-3.1-4.1-6.5-8-9.7-12c-0.6-0.7-1.1-1.3-1.7-2c-52.9-64.3-116.7-117.6-188.1-160.7c-43.9-26.5-83.7,42.1-40,68.5c32.6,19.8,63.2,41.9,91.6,66.1l-240.3,0.2c-24.6-22.2-49.2-44.4-73.8-66.7c-15.2-13.7-41.3-16.9-56.1,0c-38.6,44-77.1,88.1-115.6,132.1c-6.3,7.2-9.4,15.1-10.2,22.9c-19.6,0-39.1,0-58.7,0c-51.1,0-51.1,79.3,0,79.3c100.5,0,200.9,0,301.4,0v0.4l328.2,0.2c1.9,0,3.8-0.2,5.7-0.3c87.7,0,175.5,0,263.2,0c0.7,0,1.3,0,1.8,0c0.7,0,1.4,0,2.1,0c20.1,0,32.2-12.3,36.5-27.2C991.1,846.4,991.3,835,985.2,823.2z M202.3,803.6c20.6-23.5,41.2-47.1,61.8-70.6c23.7,21.4,47.4,42.8,71.1,64.2c3.1,2.8,6.3,4.8,9.6,6.4C297.3,803.6,249.8,803.6,202.3,803.6z M197.6,408H153v24.8h218V408h-44.6v-27.9H480V116.6H58.8v263.6h138.7V408z M296.6,393.2h-69.4v-13h69.4V393.2z M197.5,350.4h-109V146.3h361.7v204.1H326.4H197.5z"/></g><g></g><g></g><g></g><g></g><g></g><g></g><g></g><g></g><g></g><g></g><g></g><g></g><g></g><g></g><g></g></g>
</svg>